<svg width="18" height="24" viewBox="0 0 18 24" fill="none" xmlns="http://www.w3.org/2000/svg">
<path d="M10.3119 7.26069C7.93627 7.26069 6.5044 8.23348 5.81015 9.30355C5.81015 9.30355 5.94032 8.39561 5.94032 7.29312V0.0187988H0.722656V22.7497H5.94032V21.0959C6.62372 22.1336 8.15322 23.1388 10.3119 23.1388C14.2495 23.1388 17.417 19.7989 17.417 15.1835C17.417 10.5682 14.2495 7.26069 10.3119 7.26069ZM8.91255 18.4262C7.1227 18.4262 5.85354 16.9346 5.85354 15.1835C5.85354 13.4001 7.1227 11.9733 8.91255 11.9733C10.7349 11.9733 12.0041 13.4001 12.0041 15.1835C12.0041 16.9346 10.7349 18.4262 8.91255 18.4262Z" fill="#FAFAFA"/>
</svg>
